<mxfile host="app.diagrams.net" agent="Mozilla/5.0 (Macintosh; Intel Mac OS X 10_15_7) AppleWebKit/605.1.15 (KHTML, like Gecko) Version/18.2 Safari/605.1.15" version="26.0.11">
  <diagram name="Страница — 1" id="a8o7vgygjojU3TE3YkUc">
    <mxGraphModel dx="2064" dy="2013" grid="1" gridSize="10" guides="1" tooltips="1" connect="1" arrows="1" fold="1" page="1" pageScale="1" pageWidth="827" pageHeight="1169" math="0" shadow="0">
      <root>
        <mxCell id="0" />
        <mxCell id="1" parent="0" />
        <mxCell id="7WrG2_7g9NBoyRxp8iAG-11" value="&lt;table cellpadding=&quot;0&quot; cellspacing=&quot;0&quot;&gt;&#xa;&lt;tbody&gt;&#xa;&lt;tr&gt;&#xa;&lt;td valign=&quot;top&quot;&gt;&#xa;&lt;p style=&quot;margin: 0.0px 0.0px 0.0px 0.0px; font: 12.0px Helvetica; min-height: 14.0px&quot;&gt;&lt;br&gt;&lt;/p&gt;&#xa;&lt;/td&gt;&#xa;&lt;td valign=&quot;top&quot;&gt;&#xa;&lt;p style=&quot;margin: 0.0px 0.0px 0.0px 0.0px; font: 12.0px Helvetica&quot;&gt;Сервис хранения фотографий&lt;/p&gt;&#xa;&lt;/td&gt;&#xa;&lt;/tr&gt;&#xa;&lt;/tbody&gt;&#xa;&lt;/table&gt;&#xa;&lt;br class=&quot;Apple-interchange-newline&quot;&gt;" style="rounded=0;whiteSpace=wrap;html=1;" parent="1" vertex="1">
          <mxGeometry x="-150" y="-70" width="1010" height="780" as="geometry" />
        </mxCell>
        <mxCell id="hweiAggtInR8iqroWVH2-2" value="" style="rounded=0;whiteSpace=wrap;html=1;" vertex="1" parent="1">
          <mxGeometry x="-110" y="-40" width="930" height="710" as="geometry" />
        </mxCell>
        <mxCell id="7WrG2_7g9NBoyRxp8iAG-12" style="edgeStyle=orthogonalEdgeStyle;rounded=0;orthogonalLoop=1;jettySize=auto;html=1;entryX=0;entryY=0.5;entryDx=0;entryDy=0;" parent="1" source="2VvCSxELuzZKoWMLRzby-4" target="2VvCSxELuzZKoWMLRzby-9" edge="1">
          <mxGeometry relative="1" as="geometry" />
        </mxCell>
        <mxCell id="2VvCSxELuzZKoWMLRzby-4" value="Пользователь" style="shape=umlActor;verticalLabelPosition=bottom;verticalAlign=top;html=1;outlineConnect=0;" parent="1" vertex="1">
          <mxGeometry x="-210" y="220" width="30" height="60" as="geometry" />
        </mxCell>
        <mxCell id="2VvCSxELuzZKoWMLRzby-22" style="edgeStyle=orthogonalEdgeStyle;rounded=0;orthogonalLoop=1;jettySize=auto;html=1;entryX=0;entryY=0.5;entryDx=0;entryDy=0;" parent="1" source="2VvCSxELuzZKoWMLRzby-5" target="2VvCSxELuzZKoWMLRzby-13" edge="1">
          <mxGeometry relative="1" as="geometry" />
        </mxCell>
        <mxCell id="2VvCSxELuzZKoWMLRzby-5" value="Модератор" style="shape=umlActor;verticalLabelPosition=bottom;verticalAlign=top;html=1;outlineConnect=0;" parent="1" vertex="1">
          <mxGeometry x="-220" y="480" width="30" height="60" as="geometry" />
        </mxCell>
        <mxCell id="2VvCSxELuzZKoWMLRzby-19" style="edgeStyle=orthogonalEdgeStyle;rounded=0;orthogonalLoop=1;jettySize=auto;html=1;entryX=0.5;entryY=0;entryDx=0;entryDy=0;dashed=1;endArrow=block;endFill=1;" parent="1" source="2VvCSxELuzZKoWMLRzby-6" target="2VvCSxELuzZKoWMLRzby-17" edge="1">
          <mxGeometry relative="1" as="geometry" />
        </mxCell>
        <mxCell id="2VvCSxELuzZKoWMLRzby-6" value="Добавить фотографию" style="ellipse;whiteSpace=wrap;html=1;" parent="1" vertex="1">
          <mxGeometry x="390" y="60" width="120" height="80" as="geometry" />
        </mxCell>
        <mxCell id="2VvCSxELuzZKoWMLRzby-7" value="Изменить фотографию" style="ellipse;whiteSpace=wrap;html=1;" parent="1" vertex="1">
          <mxGeometry x="690" y="90" width="120" height="80" as="geometry" />
        </mxCell>
        <mxCell id="2VvCSxELuzZKoWMLRzby-28" style="edgeStyle=orthogonalEdgeStyle;rounded=0;orthogonalLoop=1;jettySize=auto;html=1;exitX=0;exitY=0.5;exitDx=0;exitDy=0;dashed=1;" parent="1" source="2VvCSxELuzZKoWMLRzby-8" edge="1">
          <mxGeometry relative="1" as="geometry">
            <mxPoint x="510" y="260" as="targetPoint" />
          </mxGeometry>
        </mxCell>
        <mxCell id="2VvCSxELuzZKoWMLRzby-8" value="Удалить фотографию" style="ellipse;whiteSpace=wrap;html=1;" parent="1" vertex="1">
          <mxGeometry x="680" y="220" width="120" height="80" as="geometry" />
        </mxCell>
        <mxCell id="2VvCSxELuzZKoWMLRzby-9" value="Создать альбом" style="ellipse;whiteSpace=wrap;html=1;" parent="1" vertex="1">
          <mxGeometry x="-80" y="210" width="120" height="80" as="geometry" />
        </mxCell>
        <mxCell id="2VvCSxELuzZKoWMLRzby-10" value="Удалить альбом" style="ellipse;whiteSpace=wrap;html=1;" parent="1" vertex="1">
          <mxGeometry x="180" y="370" width="120" height="80" as="geometry" />
        </mxCell>
        <mxCell id="2VvCSxELuzZKoWMLRzby-12" value="Комментировать фотографию" style="ellipse;whiteSpace=wrap;html=1;" parent="1" vertex="1">
          <mxGeometry x="680" y="350" width="120" height="80" as="geometry" />
        </mxCell>
        <mxCell id="2VvCSxELuzZKoWMLRzby-24" style="edgeStyle=orthogonalEdgeStyle;rounded=0;orthogonalLoop=1;jettySize=auto;html=1;entryX=0;entryY=0.5;entryDx=0;entryDy=0;dashed=1;exitX=0.5;exitY=1;exitDx=0;exitDy=0;" parent="1" source="2VvCSxELuzZKoWMLRzby-13" target="2VvCSxELuzZKoWMLRzby-14" edge="1">
          <mxGeometry relative="1" as="geometry">
            <Array as="points">
              <mxPoint x="-20" y="600" />
            </Array>
          </mxGeometry>
        </mxCell>
        <mxCell id="hweiAggtInR8iqroWVH2-19" style="edgeStyle=orthogonalEdgeStyle;rounded=0;orthogonalLoop=1;jettySize=auto;html=1;exitX=1;exitY=0;exitDx=0;exitDy=0;entryX=0;entryY=1;entryDx=0;entryDy=0;dashed=1;" edge="1" parent="1" source="2VvCSxELuzZKoWMLRzby-13" target="2VvCSxELuzZKoWMLRzby-17">
          <mxGeometry relative="1" as="geometry" />
        </mxCell>
        <mxCell id="2VvCSxELuzZKoWMLRzby-13" value="Оповещение о добавленнрй фотографии" style="ellipse;whiteSpace=wrap;html=1;" parent="1" vertex="1">
          <mxGeometry x="-90" y="470" width="120" height="80" as="geometry" />
        </mxCell>
        <mxCell id="2VvCSxELuzZKoWMLRzby-14" value="Одобрить фотографию" style="ellipse;whiteSpace=wrap;html=1;" parent="1" vertex="1">
          <mxGeometry x="500" y="560" width="120" height="80" as="geometry" />
        </mxCell>
        <mxCell id="2VvCSxELuzZKoWMLRzby-15" value="Удалить фотографию" style="ellipse;whiteSpace=wrap;html=1;" parent="1" vertex="1">
          <mxGeometry x="500" y="470" width="120" height="80" as="geometry" />
        </mxCell>
        <mxCell id="hweiAggtInR8iqroWVH2-21" style="edgeStyle=orthogonalEdgeStyle;rounded=0;orthogonalLoop=1;jettySize=auto;html=1;" edge="1" parent="1" source="2VvCSxELuzZKoWMLRzby-17" target="2VvCSxELuzZKoWMLRzby-15">
          <mxGeometry relative="1" as="geometry">
            <Array as="points">
              <mxPoint x="450" y="380" />
              <mxPoint x="460" y="380" />
              <mxPoint x="460" y="510" />
            </Array>
          </mxGeometry>
        </mxCell>
        <mxCell id="2VvCSxELuzZKoWMLRzby-17" value="Просмотреть фотографию" style="ellipse;whiteSpace=wrap;html=1;" parent="1" vertex="1">
          <mxGeometry x="390" y="210" width="120" height="80" as="geometry" />
        </mxCell>
        <mxCell id="2VvCSxELuzZKoWMLRzby-27" style="edgeStyle=orthogonalEdgeStyle;rounded=0;orthogonalLoop=1;jettySize=auto;html=1;entryX=0.769;entryY=0.928;entryDx=0;entryDy=0;dashed=1;entryPerimeter=0;" parent="1" source="2VvCSxELuzZKoWMLRzby-12" target="2VvCSxELuzZKoWMLRzby-17" edge="1">
          <mxGeometry relative="1" as="geometry">
            <Array as="points">
              <mxPoint x="550" y="390" />
              <mxPoint x="550" y="320" />
              <mxPoint x="482" y="320" />
            </Array>
          </mxGeometry>
        </mxCell>
        <mxCell id="2VvCSxELuzZKoWMLRzby-29" style="edgeStyle=orthogonalEdgeStyle;rounded=0;orthogonalLoop=1;jettySize=auto;html=1;entryX=1;entryY=0;entryDx=0;entryDy=0;exitX=0;exitY=0.5;exitDx=0;exitDy=0;dashed=1;" parent="1" source="2VvCSxELuzZKoWMLRzby-7" target="2VvCSxELuzZKoWMLRzby-17" edge="1">
          <mxGeometry relative="1" as="geometry">
            <Array as="points">
              <mxPoint x="690" y="120" />
              <mxPoint x="560" y="120" />
              <mxPoint x="560" y="222" />
            </Array>
          </mxGeometry>
        </mxCell>
        <mxCell id="7WrG2_7g9NBoyRxp8iAG-2" value="&amp;lt;&amp;lt;include&amp;gt;&amp;gt;" style="text;html=1;align=center;verticalAlign=middle;resizable=0;points=[];autosize=1;strokeColor=none;fillColor=none;" parent="1" vertex="1">
          <mxGeometry x="220" y="570" width="90" height="30" as="geometry" />
        </mxCell>
        <mxCell id="7WrG2_7g9NBoyRxp8iAG-4" value="&amp;lt;&amp;lt;include&amp;gt;&amp;gt;" style="text;html=1;align=center;verticalAlign=middle;resizable=0;points=[];autosize=1;strokeColor=none;fillColor=none;" parent="1" vertex="1">
          <mxGeometry x="460" y="410" width="90" height="30" as="geometry" />
        </mxCell>
        <mxCell id="7WrG2_7g9NBoyRxp8iAG-6" value="&amp;lt;&amp;lt;extend&amp;gt;&amp;gt;" style="text;html=1;align=center;verticalAlign=middle;resizable=0;points=[];autosize=1;strokeColor=none;fillColor=none;" parent="1" vertex="1">
          <mxGeometry x="360" y="160" width="90" height="30" as="geometry" />
        </mxCell>
        <mxCell id="7WrG2_7g9NBoyRxp8iAG-7" value="&amp;lt;&amp;lt;extend&amp;gt;&amp;gt;" style="text;html=1;align=center;verticalAlign=middle;resizable=0;points=[];autosize=1;strokeColor=none;fillColor=none;" parent="1" vertex="1">
          <mxGeometry x="570" y="90" width="90" height="30" as="geometry" />
        </mxCell>
        <mxCell id="7WrG2_7g9NBoyRxp8iAG-8" value="&amp;lt;&amp;lt;extend&amp;gt;&amp;gt;" style="text;html=1;align=center;verticalAlign=middle;resizable=0;points=[];autosize=1;strokeColor=none;fillColor=none;" parent="1" vertex="1">
          <mxGeometry x="570" y="230" width="90" height="30" as="geometry" />
        </mxCell>
        <mxCell id="7WrG2_7g9NBoyRxp8iAG-9" value="&amp;lt;&amp;lt;extend&amp;gt;&amp;gt;" style="text;html=1;align=center;verticalAlign=middle;resizable=0;points=[];autosize=1;strokeColor=none;fillColor=none;" parent="1" vertex="1">
          <mxGeometry x="570" y="355" width="90" height="30" as="geometry" />
        </mxCell>
        <mxCell id="hweiAggtInR8iqroWVH2-5" value="&lt;font style=&quot;font-size: 14px;&quot;&gt;&lt;br&gt;&lt;br&gt;&lt;br&gt;&lt;br&gt;&lt;br&gt;&lt;br&gt;&lt;br&gt;&lt;/font&gt;&lt;table cellpadding=&quot;0&quot; cellspacing=&quot;0&quot;&gt;&lt;tbody&gt;&lt;tr&gt;&lt;td valign=&quot;top&quot;&gt;&lt;font style=&quot;font-size: 14px;&quot;&gt;&lt;br&gt;&lt;/font&gt;&lt;p style=&quot;margin: 0px; font-style: normal; font-variant-caps: normal; font-stretch: normal; line-height: normal; font-size-adjust: none; font-kerning: auto; font-variant-alternates: normal; font-variant-ligatures: normal; font-variant-numeric: normal; font-variant-east-asian: normal; font-variant-position: normal; font-variant-emoji: normal; font-feature-settings: normal; font-optical-sizing: auto; font-variation-settings: normal; min-height: 14px;&quot;&gt;&lt;font style=&quot;font-size: 14px;&quot;&gt;&lt;br&gt;&lt;/font&gt;&lt;/p&gt;&lt;font style=&quot;font-size: 14px;&quot;&gt;&lt;br&gt;&lt;/font&gt;&lt;/td&gt;&lt;td valign=&quot;top&quot;&gt;&lt;font style=&quot;font-size: 14px;&quot;&gt;&lt;br&gt;&lt;/font&gt;&lt;p style=&quot;margin: 0px; font-style: normal; font-variant-caps: normal; font-stretch: normal; line-height: normal; font-size-adjust: none; font-kerning: auto; font-variant-alternates: normal; font-variant-ligatures: normal; font-variant-numeric: normal; font-variant-east-asian: normal; font-variant-position: normal; font-variant-emoji: normal; font-feature-settings: normal; font-optical-sizing: auto; font-variation-settings: normal;&quot;&gt;&lt;font style=&quot;font-size: 14px;&quot;&gt;Сервис хранения фотографий&lt;/font&gt;&lt;/p&gt;&lt;font style=&quot;font-size: 14px;&quot;&gt;&lt;br&gt;&lt;/font&gt;&lt;/td&gt;&lt;/tr&gt;&lt;/tbody&gt;&lt;/table&gt;" style="text;html=1;align=center;verticalAlign=middle;whiteSpace=wrap;rounded=0;" vertex="1" parent="1">
          <mxGeometry x="210" y="-100" width="250" height="70" as="geometry" />
        </mxCell>
        <mxCell id="hweiAggtInR8iqroWVH2-8" style="edgeStyle=orthogonalEdgeStyle;rounded=0;orthogonalLoop=1;jettySize=auto;html=1;entryX=0;entryY=0.5;entryDx=0;entryDy=0;dashed=1;" edge="1" parent="1" source="hweiAggtInR8iqroWVH2-6" target="2VvCSxELuzZKoWMLRzby-17">
          <mxGeometry relative="1" as="geometry" />
        </mxCell>
        <mxCell id="hweiAggtInR8iqroWVH2-11" style="edgeStyle=orthogonalEdgeStyle;rounded=0;orthogonalLoop=1;jettySize=auto;html=1;entryX=0.5;entryY=0;entryDx=0;entryDy=0;dashed=1;" edge="1" parent="1" source="hweiAggtInR8iqroWVH2-6" target="2VvCSxELuzZKoWMLRzby-10">
          <mxGeometry relative="1" as="geometry" />
        </mxCell>
        <mxCell id="hweiAggtInR8iqroWVH2-6" value="Просмотр альбома" style="ellipse;whiteSpace=wrap;html=1;" vertex="1" parent="1">
          <mxGeometry x="180" y="210" width="120" height="80" as="geometry" />
        </mxCell>
        <mxCell id="hweiAggtInR8iqroWVH2-7" value="" style="endArrow=classic;html=1;rounded=0;exitX=1;exitY=0.5;exitDx=0;exitDy=0;entryX=0;entryY=0.5;entryDx=0;entryDy=0;dashed=1;" edge="1" parent="1" source="2VvCSxELuzZKoWMLRzby-9" target="hweiAggtInR8iqroWVH2-6">
          <mxGeometry width="50" height="50" relative="1" as="geometry">
            <mxPoint x="240" y="260" as="sourcePoint" />
            <mxPoint x="290" y="210" as="targetPoint" />
          </mxGeometry>
        </mxCell>
        <mxCell id="hweiAggtInR8iqroWVH2-9" value="&amp;lt;&amp;lt;include&amp;gt;&amp;gt;" style="text;html=1;align=center;verticalAlign=middle;resizable=0;points=[];autosize=1;strokeColor=none;fillColor=none;" vertex="1" parent="1">
          <mxGeometry x="70" y="220" width="90" height="30" as="geometry" />
        </mxCell>
        <mxCell id="hweiAggtInR8iqroWVH2-10" value="&amp;lt;&amp;lt;include&amp;gt;&amp;gt;" style="text;html=1;align=center;verticalAlign=middle;resizable=0;points=[];autosize=1;strokeColor=none;fillColor=none;" vertex="1" parent="1">
          <mxGeometry x="300" y="220" width="90" height="30" as="geometry" />
        </mxCell>
        <mxCell id="hweiAggtInR8iqroWVH2-12" value="&amp;lt;&amp;lt;include&amp;gt;&amp;gt;" style="text;html=1;align=center;verticalAlign=middle;resizable=0;points=[];autosize=1;strokeColor=none;fillColor=none;" vertex="1" parent="1">
          <mxGeometry x="140" y="320" width="90" height="30" as="geometry" />
        </mxCell>
        <mxCell id="hweiAggtInR8iqroWVH2-20" value="&amp;lt;&amp;lt;include&amp;gt;&amp;gt;" style="text;html=1;align=center;verticalAlign=middle;resizable=0;points=[];autosize=1;strokeColor=none;fillColor=none;" vertex="1" parent="1">
          <mxGeometry x="310" y="340" width="90" height="30" as="geometry" />
        </mxCell>
      </root>
    </mxGraphModel>
  </diagram>
</mxfile>
